<?xml version="1.0" encoding="UTF-8" standalone="no"?>
<svg
   width="805"
   height="805"
   viewBox="0 0 805 805"
   version="1.1"
   id="svg5"
   sodipodi:docname="pragma_logo_square.svg"
   inkscape:version="1.4.2 (ebf0e940d0, 2025-05-08)"
   xmlns:inkscape="http://www.inkscape.org/namespaces/inkscape"
   xmlns:sodipodi="http://sodipodi.sourceforge.net/DTD/sodipodi-0.dtd"
   xmlns="http://www.w3.org/2000/svg"
   xmlns:svg="http://www.w3.org/2000/svg">
  <defs
     id="defs5" />
  <sodipodi:namedview
     id="namedview5"
     pagecolor="#ffffff"
     bordercolor="#000000"
     borderopacity="0.25"
     inkscape:showpageshadow="2"
     inkscape:pageopacity="0.0"
     inkscape:pagecheckerboard="0"
     inkscape:deskcolor="#d1d1d1"
     inkscape:zoom="1.0012422"
     inkscape:cx="376.53226"
     inkscape:cy="402.5"
     inkscape:window-width="1920"
     inkscape:window-height="1008"
     inkscape:window-x="0"
     inkscape:window-y="0"
     inkscape:window-maximized="1"
     inkscape:current-layer="svg5" />
  <g
     id="g5"
     transform="translate(24.255755)">
    <path
       d="m 244.846,249.487 c -2.774,2.775 4.405,25.564 11.411,36.225 2.454,3.733 5.684,8.91 7.178,11.505 1.494,2.594 4.683,7.712 7.088,11.373 11.34,17.266 -4.119,22.444 -31.987,10.715 -3.282,-1.382 -14.308,-5.136 -24.502,-8.342 -10.194,-3.207 -20.559,-6.552 -23.034,-7.435 l -4.5,-1.605 6.076,6.288 c 10.202,10.558 14.407,15.899 20.031,25.44 6.919,11.739 6.907,11.915 -0.857,12.723 -3.437,0.358 -8.5,1.335 -11.25,2.172 -2.75,0.837 -10.85,2.639 -18,4.003 -19.663,3.752 -24.841,5.119 -49.5,13.065 -7.975,2.569 -16.456,5.577 -18.846,6.684 l -4.346,2.013 8.083,2.333 c 4.446,1.284 12.026,3.959 16.846,5.944 4.82,1.986 12.158,4.845 16.308,6.353 4.15,1.509 13.375,5.311 20.5,8.45 21.072,9.282 19.245,8.297 16.955,9.15 -60.924,22.7 -94.435,41.39 -116.026,64.71 -6.977,7.536 -7.196,9.178 -0.789,5.91 36.834,-18.792 105.949,-32.899 138.34,-28.237 37.52,5.4 68.034,26.905 85.953,60.576 7.589,14.26 8.126,15.136 22.022,35.931 15.674,23.456 50.279,43.953 66.099,39.151 26.415,-8.017 49.536,-31.194 72.868,-73.042 14.293,-25.636 25.021,-36.878 48.445,-50.767 35.884,-21.276 113.114,-14.198 177.357,16.255 3.448,1.635 6.534,2.972 6.858,2.972 2.06,0 -17.656,-19.353 -26.235,-25.752 -15.76,-11.756 -27.689,-18.333 -52.392,-28.89 -5.775,-2.468 -11.4,-4.887 -12.5,-5.376 -7.103,-3.16 -24.777,-9.9 -28.776,-10.974 -6.601,-1.773 -6.693,-2.685 -0.547,-5.426 2.928,-1.306 9.598,-4.278 14.823,-6.605 9.516,-4.237 26.687,-10.899 57.341,-22.244 3.934,-1.456 4.466,-1.211 -22.841,-10.527 -13.494,-4.604 -25.536,-7.625 -58,-14.547 -17.25,-3.679 -23.5,-5.781 -23.5,-7.905 0,-3.086 10.472,-17.362 23.843,-32.504 4.812,-5.45 7.838,-10.597 3.934,-6.694 -1.136,1.136 -25.949,9.321 -32.986,10.882 -4.01,0.889 -9.991,2.958 -13.291,4.599 -7.259,3.608 -26.889,8.181 -33.333,7.764 -8.924,-0.576 -5.569,-15.262 7.389,-32.347 12.209,-16.098 20.869,-41.542 14.917,-43.826 -1.68,-0.645 -4.473,0.204 -4.473,1.358 0,3.39 -13.503,13.642 -33.5,25.433 -21.592,12.732 -24.584,14.885 -32.702,23.53 -12.463,13.271 -18.904,26.889 -22.965,48.551 -2.436,12.992 -6.228,28.564 -11.785,48.385 -4.348,15.51 -6.454,31.383 -5.52,41.615 0.985,10.799 5.248,41.609 5.838,42.199 0.139,0.14 1.632,-4.123 3.316,-9.473 6.267,-19.898 6.214,-19.61 5.126,-27.751 l -1.007,-7.531 4.25,-6.722 c 10.497,-16.602 13.566,-20.999 17.937,-25.702 2.566,-2.761 8.044,-9.295 12.173,-14.52 22.027,-27.876 37.971,-37.609 67.178,-41.01 12.622,-1.47 11.543,3.192 -3.581,15.474 -6.98,5.668 -5.856,6.194 14.51,6.787 16.047,0.468 38.445,3.012 41.612,4.727 1.002,0.542 0.165,1.583 -3.058,3.8 -2.44,1.679 -5.086,3.843 -5.88,4.807 -0.793,0.965 -5.605,5.073 -10.692,9.129 -10.379,8.274 -10.219,7.98 -6.63,12.246 2.503,2.975 2.563,3.315 1.343,7.671 -1.043,3.725 -1.038,4.705 0.026,5.362 3.631,2.245 -6.318,8.08 -26.489,15.536 -13.86,5.124 -18.796,7.557 -28.279,13.942 -4.522,3.044 -8.221,5.261 -8.221,4.927 0,-1.722 5.753,-11.585 13.718,-23.518 17.163,-25.714 17.198,-26.14 1.677,-20.321 -29.084,10.903 -49.945,41.562 -69.46,102.081 -9.971,30.919 -10.672,32.397 -19.238,40.574 -18.218,17.39 -32.714,17.501 -51.384,0.393 -8.236,-7.547 -9.844,-10.924 -19.685,-41.344 -19.916,-61.569 -41.642,-92.602 -71.303,-101.846 -12.449,-3.88 -13.433,-2.446 -5.229,7.615 14.401,17.663 27.153,41.949 18.308,34.869 -9.14,-7.317 -15.741,-10.969 -28.434,-15.729 C 227.245,428.524 213,421.809 213,420.101 c 0,-0.485 0.89,-2.844 1.978,-5.242 4.672,-10.295 0.174,-18.482 -17.474,-31.805 -5.294,-3.996 -9.486,-7.405 -9.315,-7.575 0.745,-0.742 23.267,-4.5 33.246,-5.548 9.851,-1.034 17.986,-0.791 25.815,0.77 3.835,0.765 3.945,-3.78 0.156,-6.404 -1.427,-0.988 -4.924,-3.837 -7.771,-6.329 -2.847,-2.493 -6.264,-5.295 -7.595,-6.227 -3.011,-2.11 -2.336,-2.957 1.526,-1.916 1.614,0.435 4.284,0.481 5.934,0.101 19.89,-4.572 43.639,7.13 64,31.535 4.95,5.933 11.714,13.994 15.032,17.913 16.57,19.574 20.918,27.049 21.886,37.626 2.36,25.791 5.917,45.512 7.498,41.565 10.613,-26.503 11.83,-54.005 3.632,-82.065 -1.446,-4.95 -3.481,-11.925 -4.522,-15.5 -1.041,-3.575 -3.495,-13.925 -5.454,-23 -6.824,-31.624 -9.599,-38.707 -20.42,-52.11 -11.452,-14.185 -15.112,-17.121 -37.615,-30.179 -16.167,-9.38 -25.898,-16.184 -29.039,-20.303 -3.004,-3.938 -8.353,-7.219 -9.652,-5.921 M 446.311,324.5 c -3.089,7.903 -5.161,16.745 -9.335,39.835 -2.618,14.482 -2.833,14.274 6.159,5.954 4.051,-3.747 10.29,-9.058 13.865,-11.801 3.574,-2.743 7.174,-5.58 8,-6.303 0.825,-0.724 3.637,-2.882 6.25,-4.796 6.339,-4.645 6.049,-5.188 -2.791,-5.223 -12.723,-0.05 -16.792,-4.004 -18.2,-17.691 l -0.821,-7.975 -3.127,8 m -146.743,3.415 c -0.38,4.353 -0.375,9.596 0.01,11.65 l 0.701,3.736 -7.889,-0.671 c -4.34,-0.369 -9.86,-0.947 -12.268,-1.283 -6.054,-0.847 -5.198,0.847 3.439,6.806 3.816,2.633 9.384,6.938 12.372,9.567 14.218,12.51 25.795,18.672 24.689,13.142 -0.468,-2.343 -0.184,-3.463 1.125,-4.421 3.187,-2.333 -5.447,-23.304 -16.135,-39.191 -5.896,-8.763 -5.215,-8.838 -6.044,0.665 m 229.854,149.969 c -2.771,1.69 -3.453,3.205 -6.856,15.246 -9.906,35.047 -23.583,58.592 -48.872,84.13 -15.129,15.277 -54.19,46.74 -58.028,46.74 -0.329,0 -3.383,1.8 -6.787,4 -7.527,4.865 -6.346,5.051 10.143,1.594 34.948,-7.328 52.769,-14.197 71.497,-27.557 11.76,-8.39 12.432,-8.542 8.789,-1.982 -11.847,21.329 -46.562,57.147 -70.505,72.742 -12.829,8.357 -11.919,8.737 11.368,4.748 28.807,-4.935 57.294,-17.067 80.78,-34.403 3.602,-2.659 7.899,-5.669 9.549,-6.689 4.76,-2.944 15.611,-11.428 20.25,-15.834 2.337,-2.219 4.25,-3.574 4.25,-3.01 0,1.923 -7.081,20.85 -10.431,27.882 -1.837,3.855 -4.744,10.241 -6.461,14.191 -10.62,24.44 -35.143,59.484 -55.504,79.321 -13.694,13.341 -39.739,31.887 -48.429,34.484 -1.279,0.383 -2.114,0.907 -1.856,1.165 1.409,1.409 41.955,-8.711 61.133,-15.258 14.919,-5.093 16.785,-6.324 22.573,-14.894 1.857,-2.75 5.477,-7.7 8.045,-11 35.889,-46.129 59.297,-116.757 57.259,-172.763 l -0.829,-22.762 -2.467,4.66 c -3.371,6.367 -15.412,24.604 -17.253,26.133 -1.313,1.09 -1.567,-0.682 -2.075,-14.513 -1.098,-29.869 -7.921,-57.428 -17.821,-71.977 -4.826,-7.091 -6.185,-7.612 -11.462,-4.394 m 2.403,75.86 c -6.324,7.426 -24.101,43.106 -26.87,53.93 -3.97,15.525 -2.259,22.43 5.155,20.802 26.5,-5.82 46.501,-20.049 55.807,-39.703 5.095,-10.758 1.342,-10.914 -9.886,-0.41 -9.582,8.965 -20.02,16.571 -28.949,21.096 l -5.377,2.724 0.689,-6.722 c 0.898,-8.764 3.045,-19.018 6.065,-28.961 4.804,-15.818 6.348,-26.257 3.366,-22.756"
       stroke="none"
       fill="#fcffff"
       fill-rule="evenodd"
       id="path1" />
    <path
       d="m 313,188.395 c 0,0.217 0.853,3.254 1.895,6.75 1.042,3.495 2.19,7.65 2.551,9.233 0.361,1.583 2.283,5.408 4.27,8.5 12.915,20.091 24.343,57.579 21.653,71.029 -0.727,3.635 -3.677,2.628 -10.132,-3.461 -4.61,-4.348 -5.494,-4.331 -4.665,0.086 l 0.663,3.532 -2.868,-1.157 c -6.9,-2.783 -8.132,-3.546 -12.867,-7.969 -7.136,-6.666 -24.482,-19.513 -34.96,-25.894 -5.763,-3.51 -12.467,-8.896 -18.788,-15.094 -10.719,-10.511 -11.214,-10.659 -9.746,-2.919 0.547,2.883 0.994,7.626 0.994,10.54 0,2.915 0.478,6.566 1.063,8.114 0.855,2.266 0.816,2.571 -0.2,1.565 -3.958,-3.917 -1.763,-0.377 2.516,4.058 5.91,6.126 12.333,10.619 29.158,20.394 22.534,13.093 26.168,16.009 37.615,30.188 10.821,13.403 13.596,20.486 20.42,52.11 1.959,9.075 4.413,19.425 5.454,23 1.041,3.575 3.076,10.55 4.522,15.5 8.198,28.06 6.981,55.562 -3.632,82.065 -1.345,3.357 -2.445,-1.322 -5.355,-22.78 -1.606,-11.839 -2.159,-13.262 -7.694,-19.785 -2.1,-2.475 -7.824,-9.232 -12.72,-15.016 -13.226,-15.625 -29.84,-29.352 -46.691,-38.579 -5.621,-3.077 -12.86,-7.728 -16.088,-10.336 -8.861,-7.16 -10.109,-7.663 -9.55,-3.854 0.432,2.942 0.316,3.062 -2.432,2.514 -7.967,-1.59 -16.042,-1.838 -25.951,-0.798 -9.979,1.048 -32.501,4.806 -33.246,5.548 -0.171,0.17 4.021,3.579 9.315,7.575 17.648,13.323 22.146,21.51 17.474,31.805 -1.088,2.398 -1.978,4.757 -1.978,5.242 0,1.708 14.245,8.423 31.97,15.071 12.693,4.76 19.294,8.412 28.434,15.729 8.845,7.08 -3.907,-17.206 -18.308,-34.869 -8.204,-10.061 -7.22,-11.495 5.229,-7.615 29.527,9.202 51.404,40.333 71.075,101.137 l 7.134,22.053 4.832,-5.31 c 17.985,-19.766 55.035,-19.791 68.168,-0.047 3.614,5.433 3.533,5.557 10.424,-16 18.871,-59.033 40.623,-90.889 69.437,-101.691 15.521,-5.819 15.486,-5.393 -1.677,20.321 -7.965,11.933 -13.718,21.796 -13.718,23.518 0,0.334 3.699,-1.883 8.221,-4.927 9.483,-6.385 14.419,-8.818 28.279,-13.942 20.171,-7.456 30.12,-13.291 26.489,-15.536 -1.064,-0.657 -1.069,-1.637 -0.026,-5.362 1.22,-4.356 1.16,-4.696 -1.343,-7.671 -3.589,-4.266 -3.749,-3.972 6.63,-12.246 5.087,-4.056 9.899,-8.164 10.692,-9.129 0.794,-0.964 3.44,-3.128 5.88,-4.807 3.223,-2.217 4.06,-3.258 3.058,-3.8 -3.147,-1.705 -25.521,-4.251 -41.38,-4.71 -12.613,-0.365 -17.412,-0.855 -18.598,-1.897 -1.4,-1.231 -2.204,-0.924 -6.5,2.481 -2.696,2.137 -9.852,6.727 -15.902,10.199 -19.457,11.167 -33.962,21.84 -41.276,30.37 -3.049,3.556 -18.528,20.948 -19.206,21.579 -1.304,1.215 -6.018,9.059 -6.018,10.014 0,0.581 -0.606,2.053 -1.346,3.271 -0.741,1.218 -2.14,5.14 -3.11,8.715 -2.388,8.805 -7.864,26.013 -8.178,25.699 -0.59,-0.59 -4.853,-31.4 -5.838,-42.199 -0.934,-10.232 1.172,-26.105 5.52,-41.615 5.557,-19.821 9.349,-35.393 11.785,-48.385 4.061,-21.662 10.502,-35.28 22.965,-48.551 8.118,-8.645 11.11,-10.798 32.702,-23.53 16.858,-9.941 24.222,-15.052 29.271,-20.318 l 3.453,-3.602 0.138,-13.249 c 0.155,-14.892 0.239,-14.694 -3.862,-9.14 -3.647,4.938 -13.093,12.72 -24.5,20.184 -4.675,3.059 -13.552,9.306 -19.728,13.884 -27.365,20.284 -28.23,20.822 -33.5,20.822 -7.978,0 -10.365,-7.235 -7.343,-22.253 3.066,-15.236 8.25,-27.998 23.457,-57.747 10.222,-19.995 10.88,-19.979 -16.717,-0.408 -12.654,8.974 -17.62,11.99 -30.412,18.469 l -11.744,5.948 -10.73,-5.553 c -5.902,-3.053 -11.418,-6.128 -12.257,-6.833 -0.839,-0.705 -4.676,-3.227 -8.526,-5.606 -7.39,-4.566 -21.059,-14.313 -27.72,-19.767 -3.534,-2.894 -5.78,-4.003 -5.78,-2.855 m -46.25,115.658 c 0.702,0.756 1.25,3.892 1.25,7.147 v 5.8 l -4.25,0.118 c -2.337,0.066 -4.7,0.007 -5.25,-0.13 -0.55,-0.137 -6.84,-0.354 -13.978,-0.482 l -12.979,-0.234 5.37,2.37 c 18.989,8.38 40.358,8.462 38.695,0.149 -0.669,-3.345 -7.041,-14.361 -8.917,-15.415 -0.827,-0.465 -0.809,-0.258 0.059,0.677 m 214.339,11.127 c -2.189,7.821 -1.34,10.266 3.694,10.629 7.873,0.568 29.868,-4.856 35.717,-8.808 l 3,-2.028 -4,0.574 c -2.2,0.315 -6.7,0.992 -10,1.505 -14.958,2.325 -24.533,0.737 -26.427,-4.382 -0.591,-1.6 -0.965,-1.126 -1.984,2.51 m -34.778,9.32 c -3.089,7.903 -5.161,16.745 -9.335,39.835 -2.618,14.482 -2.833,14.274 6.159,5.954 4.051,-3.747 10.29,-9.058 13.865,-11.801 3.574,-2.743 7.174,-5.58 8,-6.303 0.825,-0.724 3.637,-2.882 6.25,-4.796 6.339,-4.645 6.049,-5.188 -2.791,-5.223 -12.723,-0.05 -16.792,-4.004 -18.2,-17.691 l -0.821,-7.975 -3.127,8 m -146.743,3.415 c -0.38,4.353 -0.375,9.596 0.01,11.65 l 0.701,3.736 -7.889,-0.671 c -4.34,-0.369 -9.86,-0.947 -12.268,-1.283 -6.054,-0.847 -5.198,0.847 3.439,6.806 3.816,2.633 9.384,6.938 12.372,9.567 14.218,12.51 25.795,18.672 24.689,13.142 -0.468,-2.343 -0.184,-3.463 1.125,-4.421 3.187,-2.333 -5.447,-23.304 -16.135,-39.191 -5.896,-8.763 -5.215,-8.838 -6.044,0.665 m 232.257,225.829 c -6.324,7.426 -24.101,43.106 -26.87,53.93 -3.97,15.525 -2.259,22.43 5.155,20.802 26.5,-5.82 46.501,-20.049 55.807,-39.703 5.095,-10.758 1.342,-10.914 -9.886,-0.41 -9.582,8.965 -20.02,16.571 -28.949,21.096 l -5.377,2.724 0.689,-6.722 c 0.898,-8.764 3.045,-19.018 6.065,-28.961 4.804,-15.818 6.348,-26.257 3.366,-22.756"
       stroke="none"
       fill="#fc5607"
       fill-rule="evenodd"
       id="path2" />
    <path
       d="m 349.5,97.63 c -9.288,0.984 -37.183,5.314 -39.309,6.102 -3.957,1.467 19.4,19.01 33.477,25.144 l 7.167,3.124 h 27.839 27.839 l 9.994,-5.615 c 5.496,-3.089 12.243,-7.216 14.993,-9.172 9.794,-6.966 15.5,-11.467 15.5,-12.227 0,-4.441 -73.019,-9.95 -97.5,-7.356 m 274.128,95.568 c -3.372,5.75 -9.816,13.753 -19.569,24.302 -4.203,4.547 -13.059,16.362 -13.059,17.423 0,0.387 5.513,1.224 12.25,1.86 19.697,1.859 44.865,7.656 50.21,11.564 5.292,3.869 -8.906,20.8 -48.46,57.787 -7.425,6.943 -13.268,12.873 -12.984,13.178 0.284,0.305 7.034,1.979 15,3.721 40.007,8.746 71.719,22.318 89.484,38.297 l 5,4.497 -4.477,4.606 c -5.537,5.695 -15.09,12.171 -25.946,17.588 -4.545,2.269 -8.11,4.266 -7.921,4.439 0.189,0.173 3.897,2.199 8.239,4.503 10.169,5.395 17.108,10.511 27.453,20.243 7.301,6.869 15.634,12.645 16.701,11.578 0.372,-0.371 -2.159,-27.289 -5.527,-58.784 -7.485,-69.989 -35.249,-131.93 -81.49,-181.802 -0.968,-1.044 -1.94,-0.053 -4.904,5 M 125.991,188.75 c -0.005,0.412 -2.5,3.45 -5.546,6.75 -47.899,51.905 -71.448,115.478 -79.97,215.895 -1.903,22.42 -1.585,22.564 15.036,6.836 9.832,-9.304 21.185,-17.637 29.739,-21.83 7.304,-3.579 6.357,-4.454 -26.5,-24.506 -11.77,-7.183 12.995,-24.887 55.75,-39.856 3.3,-1.155 14.325,-4.128 24.5,-6.605 10.175,-2.478 19.85,-4.889 21.5,-5.358 l 3,-0.853 -10.433,-9.861 C 110.74,269.354 101,258.466 101,251.155 c 0,-5.172 21.329,-11.218 50,-14.174 6.325,-0.652 11.86,-1.405 12.3,-1.673 1.028,-0.627 -2.545,-5.362 -13.437,-17.808 -7.83,-8.947 -16.69,-20.458 -20.863,-27.107 -1.458,-2.323 -2.991,-3.16 -3.009,-1.643 m 533.672,245.104 c 3.188,4.332 17.497,20.084 27.337,30.094 3.575,3.637 9.364,11.235 12.865,16.884 3.5,5.65 6.571,10.065 6.825,9.812 0.484,-0.484 4.67,-18.57 5.73,-24.759 C 713.988,456.74 673.231,430 657.726,430 c -0.495,0 0.377,1.734 1.937,3.854 M 87.5,433.095 c -10.354,1.469 -25.33,10.111 -36.771,21.219 l -6.729,6.533 0.032,15.327 0.031,15.326 2.219,-2.65 c 1.22,-1.458 4.693,-5.721 7.718,-9.474 3.025,-3.753 10.915,-12.46 17.534,-19.35 30.569,-31.818 28.746,-28.744 15.966,-26.931 m 581.171,84.155 c -2.583,8.388 -4.69,15.608 -4.683,16.046 0.006,0.437 -1.76,5.612 -3.926,11.5 -2.166,5.887 -5.591,15.204 -7.61,20.704 -13.385,36.455 -27.554,66.193 -46.456,97.5 -7.905,13.092 -22.633,35.675 -26.381,40.45 -7.393,9.42 12.515,-3.053 37.885,-23.735 30.847,-25.147 60.625,-69.599 80.481,-120.14 6.438,-16.387 8.017,-22.624 6.283,-24.815 -0.548,-0.693 -2.221,-3.485 -3.719,-6.204 C 695.779,519.9 677.941,502 674.081,502 c -0.393,0 -2.828,6.863 -5.41,15.25 m -591.397,-12 c -9.297,4.987 -19.143,15.657 -24.881,26.967 -8.978,17.694 14.412,38.287 50.206,44.202 14.55,2.405 51.768,2.692 46.401,0.359 -42.617,-18.53 -64,-41.739 -64,-69.466 0,-5.14 -1.327,-5.494 -7.726,-2.062"
       stroke="none"
       fill="#00b6ff"
       fill-rule="evenodd"
       id="path3" />
    <path
       d="m 608.5,3.345 c -8.023,3.318 -44.937,22.054 -51.5,26.14 -1.925,1.198 -5.975,3.55 -9,5.226 -22.105,12.25 -45.179,26.468 -48.752,30.041 -1.124,1.124 -4.228,3.299 -6.896,4.832 -2.669,1.533 -6.672,4.012 -8.897,5.508 -3.976,2.676 -4.136,2.698 -9.5,1.306 C 421.368,62.756 345.046,62.625 284.665,76.075 l -8.839,1.968 -4.46,-2.771 C 268.912,73.747 262.089,69.263 256.203,65.308 240.797,54.955 224.856,45.013 214.5,39.299 209.55,36.567 203.7,33.279 201.5,31.991 172.303,14.898 144.044,1 138.484,1 116,1 104.543,108.595 122.968,146.702 c 2.196,4.54 2.523,6.298 1.172,6.298 -0.713,0 -13,12.212 -23.14,22.999 C 54.286,225.693 18.791,295.828 6.613,362.5 c -12.698,69.515 -4.237,154.316 20.854,209 0.758,1.65 2.344,5.475 3.527,8.5 19.286,49.337 68.076,110.132 118.982,148.259 59.376,44.47 108.284,64.128 186.024,74.771 12.056,1.65 59.342,2.391 72,1.128 43.827,-4.372 83.048,-13.349 109.5,-25.063 39.072,-17.302 55.574,-26.75 85.5,-48.956 91.27,-67.726 150.929,-179.519 150.996,-282.948 0.003,-4.183 0.361,-6.089 1.063,-5.655 1.098,0.679 0.753,-19.401 -0.49,-28.536 -0.337,-2.475 -1.311,-11.925 -2.164,-21 -6.244,-66.391 -33.039,-133.184 -76.207,-189.963 -9.013,-11.855 -18.344,-22.282 -34.005,-38 -8.877,-8.91 -13.123,-13.851 -12.553,-14.61 3.674,-4.896 4.813,-7.23 5.966,-12.221 C 646.228,91.213 639.713,22.688 622.898,3.537 619.104,-0.785 618.506,-0.793 608.5,3.345 M 597,49.104 C 591.557,54.03 581.467,62 580.675,62 c -0.226,0 -3.327,1.913 -6.893,4.25 -3.566,2.338 -7.788,4.986 -9.382,5.885 -5.833,3.289 -17.064,10.173 -23.4,14.343 -3.575,2.352 -13.7,8.993 -22.5,14.757 -8.8,5.763 -19.45,13.131 -23.667,16.372 -13.294,10.219 -48.922,35.931 -58.046,41.893 -0.842,0.55 -4.393,3.025 -7.892,5.5 -8.678,6.139 -12.344,8.402 -26.564,16.402 -22.553,12.689 -45.351,6.938 -83.633,-21.096 -2.859,-2.093 -5.682,-4.031 -6.275,-4.306 -0.592,-0.275 -2.392,-1.553 -4,-2.841 -1.607,-1.288 -12.598,-9.301 -24.423,-17.807 -11.825,-8.506 -26.225,-18.973 -32,-23.259 -5.775,-4.287 -13.2,-9.609 -16.5,-11.827 -11.434,-7.687 -37.3,-24.048 -50,-31.625 -14.09,-8.407 -20.949,-12.752 -23,-14.569 -3.657,-3.24 -11.632,-8.273 -12.203,-7.702 -8.378,8.377 -1.037,89.653 10.669,118.13 0.452,1.1 1.621,4.25 2.598,7 1.931,5.439 8.412,19.491 10.837,23.5 0.832,1.375 3.622,6.325 6.2,11 4.493,8.15 9.535,15.533 23.149,33.9 3.438,4.637 6.25,8.76 6.25,9.16 0,0.401 -7.088,1.017 -15.75,1.37 -8.662,0.352 -17.55,0.849 -19.75,1.106 -2.2,0.256 -10.525,0.71 -18.5,1.008 -7.975,0.298 -15.614,0.782 -16.975,1.075 l -2.476,0.532 2.476,1.958 c 3.536,2.798 31.349,16.329 38.475,18.719 11.368,3.812 31.021,9.452 40.151,11.522 8.965,2.033 9.186,2.153 10.843,5.908 2.259,5.12 5.879,8.307 11.099,9.768 2.369,0.663 5.021,1.995 5.895,2.96 1.893,2.093 -2.936,1.453 -15.706,-2.079 -10.174,-2.815 -10.34,-2.815 -9.945,-0.014 0.37,2.627 1.484,2.582 -11.789,0.482 -5.933,-0.939 -7.94,0.117 -5.026,2.644 2.875,2.494 3.097,2.524 -7.014,-0.95 -10.376,-3.565 -10.24,-4.118 -1.339,5.431 20.493,21.986 26.408,34.745 16.641,35.893 -3.16,0.372 -9.135,1.536 -13.278,2.587 -7.609,1.932 -9.291,2.285 -16.532,3.472 -12.131,1.988 -38.807,9.468 -59.289,16.623 -14.175,4.953 -14.118,4.753 -2.377,8.466 13.451,4.255 34.229,12.481 59.416,23.521 9.19,4.028 11.81,5.938 8.148,5.938 -1.506,0 -36.981,14.48 -47.898,19.551 -2.75,1.277 -9.006,4.153 -13.901,6.391 -18.093,8.272 -34.723,20.091 -51.006,36.248 -11.16,11.075 -11.516,12.336 -2.245,7.955 20.116,-9.504 59.114,-21.792 79.652,-25.099 3.575,-0.575 7.707,-1.274 9.182,-1.553 29.119,-5.507 66.74,-1.186 85.057,9.77 14.312,8.56 17.522,10.686 23.143,15.322 8.315,6.859 18.096,19.221 24.698,31.215 25.02,45.458 41.458,63.135 70.679,76.003 13.341,5.876 25.569,2.566 45.741,-12.378 13.067,-9.681 37.5,-37.742 37.5,-43.068 0,-0.273 1.29,-2.378 2.867,-4.677 1.577,-2.299 4.332,-7.105 6.122,-10.68 17.189,-34.332 50.149,-58.826 84.511,-62.805 10.989,-1.273 48.822,-0.35 51.417,1.254 0.408,0.252 3.856,0.948 7.662,1.547 14.708,2.314 23.381,4.385 40.421,9.651 15.088,4.662 26.991,9.088 40.352,15.005 10.844,4.802 10.821,4.735 -3.672,-10.494 C 668.035,456.023 644.783,440.53 626,431.724 616.141,427.102 592.439,417 591.453,417 c -0.309,0 -2.676,-0.97 -5.258,-2.156 -2.582,-1.186 -8.26,-3.323 -12.617,-4.75 -4.357,-1.427 -8.068,-3.044 -8.247,-3.594 -0.363,-1.117 25.486,-12.681 41.669,-18.642 5.775,-2.127 11.4,-4.292 12.5,-4.81 3.088,-1.456 14.399,-5.658 20.396,-7.578 4.25,-1.361 5.046,-1.923 3.748,-2.649 -6.014,-3.366 -54.646,-17.914 -65.144,-19.487 -43.072,-6.456 -46.726,-10.394 -28.751,-30.986 1.513,-1.733 4.168,-4.883 5.899,-7 1.731,-2.116 5.048,-5.781 7.371,-8.143 5.302,-5.392 4.966,-5.677 -3.199,-2.714 l -6.606,2.398 -5.357,-2.06 c -6.516,-2.505 -23.131,-2.106 -32.275,0.777 -4.49,1.415 -8.415,1.472 -6.499,0.094 0.229,-0.164 3.342,-2.819 6.917,-5.899 10.714,-9.23 16.03,-11.53 51.5,-22.284 6.6,-2.001 14.25,-4.684 17,-5.961 2.75,-1.278 9.05,-4.037 14,-6.132 22.251,-9.416 21.047,-11.646 -7,-12.958 -14.993,-0.701 -40.687,-3.14 -44.821,-4.254 l -2.821,-0.76 6.321,-7.799 C 572.082,212.627 584.005,191.283 595.231,159 606.534,126.497 611.936,76.406 606.555,54 604.008,43.393 603.563,43.165 597,49.104 M 349.5,97.63 c -9.288,0.984 -37.183,5.314 -39.309,6.102 -3.957,1.467 19.4,19.01 33.477,25.144 l 7.167,3.124 h 27.839 27.839 l 9.994,-5.615 c 5.496,-3.089 12.243,-7.216 14.993,-9.172 9.794,-6.966 15.5,-11.467 15.5,-12.227 0,-4.441 -73.019,-9.95 -97.5,-7.356 M 175,99.616 c 0,0.967 7.099,10.482 10.983,14.722 1.935,2.111 3.84,4.407 4.234,5.102 0.394,0.696 4.634,4.594 9.421,8.662 35.316,30.018 45.598,40.776 61.071,63.898 7.353,10.988 17.291,33.461 17.291,39.1 0,2.752 -6.629,-4.828 -28.361,-32.427 -15.343,-19.486 -33.054,-33.887 -55.491,-45.12 -8.809,-4.41 -8.478,-4.623 -7.101,4.561 4.652,31.019 32.358,79.208 43.818,76.211 2.908,-0.76 2.791,-1.191 -2.447,-8.997 -5.626,-8.383 -16.346,-28.713 -19.419,-36.828 -1.25,-3.3 -3.111,-8.108 -4.136,-10.685 -6.638,-16.694 12.695,-0.378 31.619,26.685 17.77,25.411 27.488,35.655 42.518,44.818 10.09,6.151 27.494,19.075 34.5,25.62 4.732,4.42 5.979,5.193 12.841,7.958 l 2.842,1.144 -0.688,-4.27 C 326.428,266.949 318.393,240.642 313.445,230.5 299.076,201.049 259.749,155.069 228.77,131.5 209.3,116.688 175,96.349 175,99.616 m 392.5,5.726 c -5.5,2.893 -12.663,7.037 -15.918,9.209 -3.255,2.172 -7.53,5.021 -9.5,6.33 -33.699,22.404 -72.881,61.626 -89.028,89.119 -1.776,3.025 -4.996,8.425 -7.155,12 -5.296,8.77 -10.738,22.985 -16.829,43.953 -6.005,20.67 -5.884,19.518 -1.82,17.422 3.267,-1.684 6.361,-3.882 27.022,-19.197 6.176,-4.578 15.053,-10.828 19.728,-13.89 17.399,-11.396 27.254,-21.533 39.347,-40.472 1.997,-3.126 4.087,-5.966 4.646,-6.312 0.559,-0.345 2.884,-3.378 5.166,-6.739 4.598,-6.77 16.612,-19.713 24.182,-26.05 l 4.904,-4.106 -0.709,3.445 c -2.441,11.859 -7.701,24.779 -15.989,39.271 -7.341,12.836 -8.099,14.074 -11.479,18.74 -6.279,8.668 -3.565,10.194 5.162,2.902 18.491,-15.451 29.543,-35.428 38.362,-69.341 7.365,-28.326 -53.914,18.491 -87.321,66.713 -1.777,2.563 -3.644,4.661 -4.15,4.661 -0.992,0 3.477,-13.876 4.975,-15.45 0.497,-0.522 0.904,-1.623 0.904,-2.446 0,-2.015 11.969,-23.548 18.034,-32.446 9.287,-13.621 26.549,-30.86 51.566,-51.495 26.685,-22.009 35.321,-36.036 15.9,-25.821 m 56.128,87.856 c -3.372,5.75 -9.816,13.753 -19.569,24.302 -4.203,4.547 -13.059,16.362 -13.059,17.423 0,0.387 5.513,1.224 12.25,1.86 19.697,1.859 44.865,7.656 50.21,11.564 5.292,3.869 -8.906,20.8 -48.46,57.787 -7.425,6.943 -13.268,12.873 -12.984,13.178 0.284,0.305 7.034,1.979 15,3.721 40.007,8.746 71.719,22.318 89.484,38.297 l 5,4.497 -4.477,4.606 c -5.537,5.695 -15.09,12.171 -25.946,17.588 -4.545,2.269 -8.11,4.266 -7.921,4.439 0.189,0.173 3.897,2.199 8.239,4.503 10.169,5.395 17.108,10.511 27.453,20.243 7.301,6.869 15.634,12.645 16.701,11.578 0.372,-0.371 -2.159,-27.289 -5.527,-58.784 -7.485,-69.989 -35.249,-131.93 -81.49,-181.802 -0.968,-1.044 -1.94,-0.053 -4.904,5 M 125.991,188.75 c -0.005,0.412 -2.5,3.45 -5.546,6.75 -47.899,51.905 -71.448,115.478 -79.97,215.895 -1.903,22.42 -1.585,22.564 15.036,6.836 9.832,-9.304 21.185,-17.637 29.739,-21.83 7.304,-3.579 6.357,-4.454 -26.5,-24.506 -11.77,-7.183 12.995,-24.887 55.75,-39.856 3.3,-1.155 14.325,-4.128 24.5,-6.605 10.175,-2.478 19.85,-4.889 21.5,-5.358 l 3,-0.853 -10.433,-9.861 C 110.74,269.354 101,258.466 101,251.155 c 0,-5.172 21.329,-11.218 50,-14.174 6.325,-0.652 11.86,-1.405 12.3,-1.673 1.028,-0.627 -2.545,-5.362 -13.437,-17.808 -7.83,-8.947 -16.69,-20.458 -20.863,-27.107 -1.458,-2.323 -2.991,-3.16 -3.009,-1.643 m 384.95,159.501 c -31.017,4.281 -45.305,13.489 -70.42,45.386 -3.838,4.875 -7.55,9.223 -8.25,9.663 -0.699,0.44 -1.271,1.369 -1.271,2.066 0,0.696 -1.483,2.586 -3.295,4.2 C 423.847,413 411,434.021 411,436.899 c 0,2.852 1.78,7.101 2.975,7.101 0.564,0 1.025,-0.46 1.025,-1.021 0,-0.929 4.739,-8.788 6.018,-9.979 0.678,-0.631 16.157,-18.023 19.206,-21.579 7.326,-8.545 21.875,-19.245 41.276,-30.357 6.05,-3.465 12.8,-7.726 15,-9.468 2.2,-1.743 5.35,-3.984 7,-4.981 3.667,-2.216 17.5,-16.44 17.5,-17.995 0,-1.311 -2.555,-1.405 -10.059,-0.369 M 230,350.025 c 0,0.536 0.393,0.975 0.874,0.975 0.48,0 3.618,2.449 6.972,5.442 3.355,2.993 8.249,6.684 10.876,8.203 2.628,1.519 7.419,4.878 10.646,7.464 3.228,2.586 10.467,7.219 16.088,10.296 16.835,9.218 33.446,22.938 46.704,38.579 15.238,17.974 16.311,19.282 17.389,21.201 0.788,1.402 0.951,0.181 0.655,-4.909 -0.574,-9.894 -6.058,-19.116 -24.244,-40.776 -2.771,-3.3 -7.608,-9.113 -10.749,-12.918 -10.946,-13.26 -15.473,-17.308 -28.211,-25.23 -12.11,-7.532 -26.563,-10.856 -36.665,-8.432 -3.477,0.834 -5.731,0.88 -7.634,0.156 -1.72,-0.653 -2.701,-0.672 -2.701,-0.051 m 429.663,83.829 c 3.188,4.332 17.497,20.084 27.337,30.094 3.575,3.637 9.364,11.235 12.865,16.884 3.5,5.65 6.571,10.065 6.825,9.812 0.484,-0.484 4.67,-18.57 5.73,-24.759 C 713.988,456.74 673.231,430 657.726,430 c -0.495,0 0.377,1.734 1.937,3.854 M 87.5,433.095 c -10.354,1.469 -25.33,10.111 -36.771,21.219 l -6.729,6.533 0.032,15.327 0.031,15.326 2.219,-2.65 c 1.22,-1.458 4.693,-5.721 7.718,-9.474 3.025,-3.753 10.915,-12.46 17.534,-19.35 30.569,-31.818 28.746,-28.744 15.966,-26.931 m 440.61,45.655 c -2.087,2.098 -3.489,5.602 -5.909,14.772 -10.764,40.777 -36.074,77.669 -72.201,105.244 -4.125,3.148 -7.95,6.22 -8.5,6.825 -1.577,1.735 -21.569,15.942 -26,18.477 -2.2,1.258 -6.363,3.592 -9.25,5.185 -7.989,4.409 -7.253,4.453 11.75,0.71 36.252,-7.14 53.949,-14.166 76.3,-30.29 8.109,-5.851 8.642,-5.706 4.42,1.198 -15.303,25.021 -48.041,58.009 -73.47,74.03 -8.647,5.448 -6.814,5.981 11.958,3.48 26.11,-3.479 59.344,-17.191 81.765,-33.735 3.01,-2.221 8.635,-6.203 12.5,-8.849 9.574,-6.554 14.263,-10.189 19.277,-14.946 2.337,-2.217 4.25,-3.752 4.25,-3.41 0,2.168 -7.18,20.905 -11.711,30.559 -1.677,3.575 -4.957,10.55 -7.289,15.5 -21.953,46.611 -58.309,86.775 -97.5,107.708 -3.85,2.057 -6.325,3.747 -5.5,3.756 2.522,0.029 19.926,-3.679 30.5,-6.498 5.5,-1.466 11.575,-3.055 13.5,-3.531 24.689,-6.1 31.226,-9.784 41.407,-23.336 32.671,-43.488 57.825,-102.09 62.067,-144.599 0.357,-3.575 0.899,-7.359 1.205,-8.409 0.306,-1.049 0.227,-12.88 -0.175,-26.289 l -0.731,-24.381 -3.684,6.289 c -4.597,7.85 -15.749,24.462 -16.898,25.172 -0.471,0.291 -0.914,-5.31 -0.984,-12.448 -0.07,-7.137 -0.587,-15.555 -1.149,-18.705 -0.562,-3.151 -1.29,-7.529 -1.616,-9.729 -4.103,-27.625 -14.987,-52.5 -22.971,-52.5 -1.534,0 -3.762,1.143 -5.361,2.75 m 140.561,38.5 c -2.583,8.388 -4.69,15.608 -4.683,16.046 0.006,0.437 -1.76,5.612 -3.926,11.5 -2.166,5.887 -5.591,15.204 -7.61,20.704 -13.385,36.455 -27.554,66.193 -46.456,97.5 -7.905,13.092 -22.633,35.675 -26.381,40.45 -7.393,9.42 12.515,-3.053 37.885,-23.735 30.847,-25.147 60.625,-69.599 80.481,-120.14 6.438,-16.387 8.017,-22.624 6.283,-24.815 -0.548,-0.693 -2.221,-3.485 -3.719,-6.204 C 695.779,519.9 677.941,502 674.081,502 c -0.393,0 -2.828,6.863 -5.41,15.25 m -591.397,-12 c -9.297,4.987 -19.143,15.657 -24.881,26.967 -8.978,17.694 14.412,38.287 50.206,44.202 14.55,2.405 51.768,2.692 46.401,0.359 -42.617,-18.53 -64,-41.739 -64,-69.466 0,-5.14 -1.327,-5.494 -7.726,-2.062 m 287.582,7.707 C 354.579,516.189 339,527.581 339,531.864 339,543.816 364.091,565 378.247,565 c 9.216,0 27.805,-14.357 33.612,-25.959 l 4.033,-8.058 -2.507,-2.741 c -7.057,-7.717 -9.085,-9.437 -13.907,-11.796 -11.432,-5.594 -23.925,-6.853 -34.622,-3.489 M 237,593.18 c -20.622,0.802 -36.526,2.656 -62.5,7.288 -42.485,7.576 -66.441,8.918 -86.5,4.844 -16.018,-3.253 -15.607,-4.872 -3.46,13.635 26.638,40.582 54.576,67.48 82.46,79.391 1.925,0.822 5.095,2.185 7.044,3.028 24.026,10.39 59.794,17.977 89.78,19.045 6.227,0.221 11.529,0.609 11.782,0.861 2.333,2.333 -35.919,9.494 -52.541,9.836 -8.445,0.173 -8.62,1.081 -1.004,5.203 13.889,7.517 35.837,15.415 50.439,18.149 112.38,21.044 207.561,-12.949 248.702,-88.821 4.459,-8.224 2.743,-8.225 -10.786,-0.01 -10.476,6.361 -30.187,16.296 -35.416,17.85 -1.375,0.409 -3.85,1.315 -5.5,2.013 -28.582,12.095 -73.316,17.94 -96.556,12.616 -2.444,-0.559 -7.594,-1.726 -11.444,-2.592 -3.85,-0.866 -9.925,-2.646 -13.5,-3.956 -3.575,-1.309 -10.466,-3.635 -15.313,-5.168 -11.34,-3.587 -11.646,-4.392 -1.668,-4.392 29.482,0 63.982,-6.827 84.981,-16.817 14.624,-6.958 42,-25.449 42,-28.37 0,-1.584 -5.896,-0.765 -23.093,3.211 -43.919,10.151 -48.751,10.727 -100.907,12.029 -75.647,1.887 -94.013,-0.76 -122,-17.585 -3.025,-1.819 -6.625,-3.59 -8,-3.938 -8.824,-2.227 -7.567,-4.206 3.125,-4.921 11.434,-0.764 20.004,-1.933 29.875,-4.073 3.575,-0.776 10.325,-2.152 15,-3.059 16.941,-3.287 25.166,-6.506 43.744,-17.123 4.359,-2.491 4.174,-2.837 -2.494,-4.676 -13.623,-3.756 -27.459,-4.617 -56.25,-3.498"
       stroke="none"
       fill="#3f4650"
       fill-rule="evenodd"
       id="path4" />
    <path
       d="M 597,49.104 C 591.557,54.03 581.467,62 580.675,62 c -0.226,0 -3.327,1.913 -6.893,4.25 -3.566,2.338 -7.788,4.986 -9.382,5.885 -5.833,3.289 -17.064,10.173 -23.4,14.343 -3.575,2.352 -13.7,8.993 -22.5,14.757 -8.8,5.763 -19.45,13.131 -23.667,16.372 -13.294,10.219 -48.922,35.931 -58.046,41.893 -0.842,0.55 -4.393,3.025 -7.892,5.5 -8.678,6.139 -12.344,8.402 -26.564,16.402 -22.553,12.689 -45.351,6.938 -83.633,-21.096 -2.859,-2.093 -5.682,-4.031 -6.275,-4.306 -0.592,-0.275 -2.392,-1.553 -4,-2.841 -1.607,-1.288 -12.598,-9.301 -24.423,-17.807 -11.825,-8.506 -26.225,-18.973 -32,-23.259 -5.775,-4.287 -13.2,-9.609 -16.5,-11.827 -11.434,-7.687 -37.3,-24.048 -50,-31.625 -14.09,-8.407 -20.949,-12.752 -23,-14.569 -3.657,-3.24 -11.632,-8.273 -12.203,-7.702 -8.378,8.377 -1.037,89.653 10.669,118.13 0.452,1.1 1.621,4.25 2.598,7 1.931,5.439 8.412,19.491 10.837,23.5 0.832,1.375 3.622,6.325 6.2,11 4.493,8.15 9.535,15.533 23.149,33.9 3.438,4.637 6.25,8.76 6.25,9.16 0,0.401 -7.088,1.017 -15.75,1.37 -8.662,0.352 -17.55,0.849 -19.75,1.106 -2.2,0.256 -10.525,0.71 -18.5,1.008 -7.975,0.298 -15.614,0.782 -16.975,1.075 l -2.476,0.532 2.476,1.958 c 3.536,2.798 31.349,16.329 38.475,18.719 11.368,3.812 31.021,9.452 40.151,11.522 8.965,2.033 9.186,2.153 10.843,5.908 2.259,5.12 5.879,8.307 11.099,9.768 2.369,0.663 5.021,1.995 5.895,2.96 1.893,2.093 -2.936,1.453 -15.706,-2.079 -10.174,-2.815 -10.34,-2.815 -9.945,-0.014 0.37,2.627 1.484,2.582 -11.789,0.482 -12.875,-2.037 -7.493,2.548 9.642,8.215 13.141,4.346 14.44,4.582 26.81,4.862 7.15,0.162 13.45,0.405 14,0.54 0.55,0.135 2.913,0.192 5.25,0.126 L 268,317 v -5.41 c 0,-5.448 -5.056,-16.568 -10.043,-22.09 -5.747,-6.363 -12.349,-22.927 -13.494,-33.858 l -0.719,-6.857 3.378,0.723 c 1.858,0.398 3.935,1.171 4.615,1.719 0.962,0.775 1.036,0.361 0.332,-1.865 -0.785,-2.484 -2.011,-14.507 -2.433,-23.862 -0.081,-1.779 -1.788,-5.239 -4.195,-8.5 -2.232,-3.025 -6.262,-8.65 -8.956,-12.5 -18.948,-27.081 -38.26,-43.378 -31.622,-26.685 1.025,2.577 2.886,7.385 4.136,10.685 3.073,8.115 13.793,28.445 19.419,36.828 5.238,7.806 5.355,8.237 2.447,8.997 -11.46,2.997 -39.166,-45.192 -43.818,-76.211 -1.377,-9.184 -1.708,-8.971 7.101,-4.561 22.437,11.233 40.148,25.634 55.491,45.12 21.732,27.599 28.361,35.179 28.361,32.427 0,-5.639 -9.938,-28.112 -17.291,-39.1 -15.473,-23.122 -25.755,-33.88 -61.071,-63.898 -4.787,-4.068 -9.027,-7.966 -9.421,-8.662 -0.394,-0.695 -2.299,-2.991 -4.234,-5.102 -12.341,-13.469 -12.995,-16.875 -2.198,-11.446 44.152,22.199 83.636,58.241 117.338,107.108 12.829,18.602 17.001,28.637 25.882,62.25 0.69,2.613 1.553,4.75 1.917,4.75 0.364,0 2.305,1.551 4.315,3.446 6.455,6.089 9.405,7.096 10.132,3.461 2.69,-13.45 -8.738,-50.938 -21.653,-71.029 -1.987,-3.092 -3.909,-6.917 -4.27,-8.5 -0.361,-1.583 -1.515,-5.759 -2.566,-9.28 -2.756,-9.244 -3.393,-9.353 11.62,1.984 4.4,3.323 11.825,8.527 16.5,11.565 4.675,3.039 9.815,6.457 11.422,7.596 1.607,1.139 7.573,4.477 13.257,7.418 l 10.334,5.348 11.744,-5.948 c 12.792,-6.479 17.758,-9.495 30.412,-18.469 27.597,-19.571 26.939,-19.587 16.717,0.408 -15.207,29.749 -20.391,42.511 -23.457,57.747 -2.986,14.835 -0.623,22.253 7.088,22.253 h 3.073 l 5.234,-18.149 c 6.208,-21.526 11.696,-35.944 17.075,-44.851 2.159,-3.575 5.379,-8.975 7.155,-12 13.908,-23.68 47.548,-58.945 76.446,-80.137 9.127,-6.694 10.763,-7.819 23.087,-15.891 16.738,-10.963 31.789,-16.83 26.282,-10.246 -9.408,11.25 -17.349,19.23 -27.369,27.507 -24.995,20.644 -42.203,37.838 -51.466,51.425 -6.065,8.898 -18.034,30.431 -18.034,32.446 0,0.823 -0.407,1.924 -0.904,2.446 -1.498,1.574 -5.967,15.45 -4.975,15.45 0.506,0 2.373,-2.098 4.15,-4.661 33.407,-48.222 94.686,-95.039 87.321,-66.713 -8.819,33.913 -19.871,53.89 -38.362,69.341 -8.727,7.292 -11.441,5.766 -5.162,-2.902 3.38,-4.666 4.138,-5.904 11.479,-18.74 8.288,-14.492 13.548,-27.412 15.989,-39.271 l 0.709,-3.445 -4.904,4.106 c -7.074,5.923 -19.394,19.037 -23.313,24.816 -1.853,2.733 -4.671,6.544 -6.262,8.469 -1.591,1.925 -5.736,7.55 -9.212,12.5 l -6.318,9 -0.162,12.234 -0.163,12.234 2.952,-0.591 c 10.523,-2.104 3.295,23.968 -12.512,45.136 -15.212,20.372 -10.316,26.808 17.149,22.539 3.3,-0.513 7.575,-1.164 9.5,-1.448 6.49,-0.956 17.45,-3.671 25.5,-6.316 l 8,-2.63 -3.5,-1.579 c -5.211,-2.351 -24.523,-2.146 -32.761,0.349 -5.065,1.533 -9.124,1.688 -7.156,0.272 0.229,-0.164 3.342,-2.819 6.917,-5.899 10.714,-9.23 16.03,-11.53 51.5,-22.284 6.6,-2.001 14.25,-4.684 17,-5.961 2.75,-1.278 9.05,-4.037 14,-6.132 22.251,-9.416 21.047,-11.646 -7,-12.958 -14.993,-0.701 -40.687,-3.14 -44.821,-4.254 l -2.821,-0.76 6.321,-7.799 C 572.082,212.627 584.005,191.283 595.231,159 606.534,126.497 611.936,76.406 606.555,54 604.008,43.393 603.563,43.165 597,49.104 M 237,593.18 c -20.622,0.802 -36.526,2.656 -62.5,7.288 -42.485,7.576 -66.441,8.918 -86.5,4.844 -16.018,-3.253 -15.607,-4.872 -3.46,13.635 26.638,40.582 54.576,67.48 82.46,79.391 1.925,0.822 5.095,2.185 7.044,3.028 24.026,10.39 59.794,17.977 89.78,19.045 6.227,0.221 11.529,0.609 11.782,0.861 2.333,2.333 -35.919,9.494 -52.541,9.836 -8.445,0.173 -8.62,1.081 -1.004,5.203 13.889,7.517 35.837,15.415 50.439,18.149 112.38,21.044 207.561,-12.949 248.702,-88.821 4.459,-8.224 2.743,-8.225 -10.786,-0.01 -10.476,6.361 -30.187,16.296 -35.416,17.85 -1.375,0.409 -3.85,1.315 -5.5,2.013 -28.582,12.095 -73.316,17.94 -96.556,12.616 -2.444,-0.559 -7.594,-1.726 -11.444,-2.592 -3.85,-0.866 -9.925,-2.646 -13.5,-3.956 -3.575,-1.309 -10.466,-3.635 -15.313,-5.168 -11.34,-3.587 -11.646,-4.392 -1.668,-4.392 29.482,0 63.982,-6.827 84.981,-16.817 14.624,-6.958 42,-25.449 42,-28.37 0,-1.584 -5.896,-0.765 -23.093,3.211 -43.919,10.151 -48.751,10.727 -100.907,12.029 -75.647,1.887 -94.013,-0.76 -122,-17.585 -3.025,-1.819 -6.625,-3.59 -8,-3.938 -8.824,-2.227 -7.567,-4.206 3.125,-4.921 11.434,-0.764 20.004,-1.933 29.875,-4.073 3.575,-0.776 10.325,-2.152 15,-3.059 16.941,-3.287 25.166,-6.506 43.744,-17.123 4.359,-2.491 4.174,-2.837 -2.494,-4.676 -13.623,-3.756 -27.459,-4.617 -56.25,-3.498"
       stroke="none"
       fill="#ff2147"
       fill-rule="evenodd"
       id="path5" />
  </g>
</svg>
